<svg height="64" viewBox="0 0 128 128" width="64" xmlns="http://www.w3.org/2000/svg" xmlns:xlink="http://www.w3.org/1999/xlink"><linearGradient id="a" gradientUnits="userSpaceOnUse" x1="0" x2="128" y1="128" y2="0"><stop offset="0" stop-color="#333"/><stop offset="1" stop-color="#5d5d5d"/></linearGradient><path d="m20.579809 16.574639c-6.0667 0-11.0164924 4.951842-11.0164924 11.018522v43.600362 3.775385 20.856825c0 8.607747 6.9999724 15.599627 15.6077074 15.599627h69.80755 16.380996c.8051 0 1.57683-.14377 2.29966-.3968 1.6182-.1179 2.87219-1.21907 3.60739-2.44943.48487-.81144.80226-1.73899.98586-2.73086.0177-.0807.0298-.16297.0446-.24484.025-.15787.0554-.31261.0728-.47369.025-.22681.038-.4577.0405-.69026.00029-.0274.004-.0509.004-.0768.004-.12614.0223-.2468.0223-.3745v-51.782749h-.0223v-20.642272c0-3.776285-3.02291-6.883134-6.76334-7.038652-1.33571-4.580988-5.57181-7.949594-10.57315-7.949594zm0 4.147885h80.498121c3.84159 0 6.87062 3.02905 6.87062 6.870637v43.600362 3.775385 20.856825h.0223v8.162177c0 1.17941.19704 2.28496.56478 3.28957h-49.157209v.002h-34.207397c-6.382642 0-11.461848-5.07113-11.461848-11.453784v-20.856788-3.775385-43.600362c0-3.841587 3.02903-6.870637 6.870633-6.870637zm3.014251 6.793701c-1.650383 0-2.977816 2.223996-2.977816 4.985962v20.871005c0 2.761965 1.327433 4.985962 2.977816 4.985962h25.401491c1.650383 0 2.979836-2.223997 2.979836-4.985962v-20.871005c0-2.761966-1.329453-4.985962-2.979836-4.985962zm43.316952 0c-1.65038 0-2.977812 1.380787-2.977812 3.095215 0 1.714466 1.327432 3.093216 2.977812 3.093216h31.579795c1.650383 0 2.979843-1.37875 2.979843-3.093216 0-1.714428-1.32946-3.095215-2.979843-3.095215zm45.183398 1.228755c1.27215.314955 2.17415 1.425444 2.17415 2.817905v72.771175c-.001.0274-.004.058-.006.087-.002.14611-.0184.28792-.0405.4271-.0112.0741-.027.14142-.0405.21272-.17268.74308-.61139 1.36221-1.22472 1.75512-.0623-.0642-.15058-.17276-.26521-.36431-.29929-.50087-.58098-1.41506-.58098-2.46362v-51.782796h-.0162zm-45.183398 11.097494c-1.65038 0-2.977812 1.380747-2.977812 3.095215 0 1.714466 1.327432 3.095214 2.977812 3.095214h31.579795c1.650383 0 2.979843-1.380748 2.979843-3.095214 0-1.714468-1.32946-3.095215-2.979843-3.095215zm0 12.326212c-1.65038 0-2.977812 1.380786-2.977812 3.095253 0 1.714428 1.327432 3.095215 2.977812 3.095215h31.579795c1.650383 0 2.979843-1.380787 2.979843-3.095215 0-1.714467-1.32946-3.095253-2.979843-3.095253zm-43.262298 15.943764c-1.679649 0-3.03247 1.378751-3.03247 3.093217 0 1.714428 1.352821 3.095215 3.03247 3.095215h74.789467c1.679649 0 3.032469-1.380787 3.032469-3.095215 0-1.714466-1.35282-3.093217-3.032469-3.093217zm.06276 13.508469c-1.714451 0-3.095226 1.378749-3.095226 3.093177 0 1.714467 1.380775 3.095253 3.095226 3.095253h25.168695c1.714447 0 3.093197-1.380786 3.093197-3.095253 0-1.714428-1.37875-3.093177-3.093197-3.093177zm43.199542 0c-1.65038 0-2.977812 1.378749-2.977812 3.093177 0 1.714467 1.327432 3.095253 2.977812 3.095253h31.57979c1.650384 0 2.979844-1.380786 2.979844-3.095253 0-1.714428-1.32946-3.093177-2.979844-3.093177zm-43.199547 13.50643c-1.714451 0-3.095226 1.380786-3.095226 3.09521 0 1.714472 1.380775 3.095251 3.095226 3.095251h25.168695c1.714447 0 3.093197-1.380779 3.093197-3.095251 0-1.714424-1.37875-3.09521-3.093197-3.09521zm43.199542 0c-1.65038 0-2.977812 1.380786-2.977812 3.09521 0 1.714472 1.327432 3.095251 2.977812 3.095251h31.579795c1.650384 0 2.979844-1.380779 2.979844-3.095251 0-1.714424-1.32946-3.09521-2.979844-3.09521z" fill="url(#a)"/></svg>