<svg xmlns="http://www.w3.org/2000/svg" xmlns:xlink="http://www.w3.org/1999/xlink" width="1500" zoomAndPan="magnify" viewBox="0 0 1125 187.499995" height="250" preserveAspectRatio="xMidYMid meet" version="1.0"><defs><g/><clipPath id="d309661a7b"><path d="M 1.496094 0 L 1123.503906 0 L 1123.503906 187 L 1.496094 187 Z M 1.496094 0 " clip-rule="nonzero"/></clipPath></defs><g clip-path="url(#d309661a7b)"><path fill="#ffffff" d="M 1.496094 0 L 1123.503906 0 L 1123.503906 187 L 1.496094 187 Z M 1.496094 0 " fill-opacity="1" fill-rule="nonzero"/><path fill="#ffffff" d="M 1.496094 0 L 1123.503906 0 L 1123.503906 187 L 1.496094 187 Z M 1.496094 0 " fill-opacity="1" fill-rule="nonzero"/></g><g fill="#000000" fill-opacity="1"><g transform="translate(264.018759, 92.877789)"><g><path d="M 30.765625 -50.96875 C 31.015625 -50.96875 31.140625 -50.703125 31.140625 -50.171875 L 32.078125 -42.40625 C 32.179688 -41.914062 32.234375 -41.601562 32.234375 -41.46875 C 32.234375 -41.34375 32.039062 -41.28125 31.65625 -41.28125 C 31.28125 -41.28125 31.046875 -41.328125 30.953125 -41.421875 C 30.859375 -41.515625 30.757812 -41.675781 30.65625 -41.90625 C 30.5625 -42.144531 30.445312 -42.410156 30.3125 -42.703125 C 30.175781 -42.992188 30.035156 -43.285156 29.890625 -43.578125 C 29.378906 -44.691406 28.578125 -45.796875 27.484375 -46.890625 C 24.816406 -49.460938 21.804688 -50.75 18.453125 -50.75 C 16.429688 -50.75 14.519531 -50.09375 12.71875 -48.78125 C 10.925781 -47.46875 10.03125 -45.914062 10.03125 -44.125 C 10.03125 -42.34375 10.363281 -40.796875 11.03125 -39.484375 C 11.695312 -38.171875 12.578125 -36.953125 13.671875 -35.828125 C 14.765625 -34.710938 16.015625 -33.644531 17.421875 -32.625 C 18.835938 -31.601562 20.273438 -30.570312 21.734375 -29.53125 C 25.597656 -26.832031 28.34375 -24.523438 29.96875 -22.609375 C 32.519531 -19.640625 33.90625 -16.304688 34.125 -12.609375 C 34.125 -8.484375 32.535156 -5.1875 29.359375 -2.71875 C 26.191406 -0.25 22.503906 0.984375 18.296875 0.984375 C 15.597656 0.984375 13.453125 0.707031 11.859375 0.15625 C 10.273438 -0.382812 9.175781 -0.773438 8.5625 -1.015625 C 7.957031 -1.265625 7.515625 -1.390625 7.234375 -1.390625 C 6.953125 -1.390625 6.773438 -1.375 6.703125 -1.34375 L 4.921875 -0.984375 C 4.609375 -0.984375 4.414062 -1.238281 4.34375 -1.75 C 3.632812 -7.78125 3.28125 -10.984375 3.28125 -11.359375 C 3.28125 -11.734375 3.3125 -11.988281 3.375 -12.125 C 3.4375 -12.257812 3.597656 -12.328125 3.859375 -12.328125 C 4.546875 -12.328125 5.164062 -11.351562 5.71875 -9.40625 C 8.269531 -3.9375 12.515625 -1.203125 18.453125 -1.203125 C 21.171875 -1.203125 23.492188 -2.023438 25.421875 -3.671875 C 27.359375 -5.328125 28.328125 -7.484375 28.328125 -10.140625 C 28.328125 -14.367188 25.800781 -18.304688 20.75 -21.953125 C 19.3125 -22.972656 17.242188 -24.394531 14.546875 -26.21875 C 11.847656 -28.039062 9.695312 -29.863281 8.09375 -31.6875 C 5.59375 -34.5 4.34375 -37.640625 4.34375 -41.109375 C 4.34375 -44.578125 5.71875 -47.414062 8.46875 -49.625 C 11.226562 -51.832031 14.394531 -52.9375 17.96875 -52.9375 C 19.820312 -52.9375 21.859375 -52.617188 24.078125 -51.984375 C 26.304688 -51.359375 27.859375 -50.9375 28.734375 -50.71875 Z M 30.765625 -50.96875 "/></g></g></g><g fill="#000000" fill-opacity="1"><g transform="translate(318.894675, 92.877789)"><g><path d="M 12.4375 -28.21875 C 12.4375 -27.632812 12.519531 -27.34375 12.6875 -27.34375 C 12.851562 -27.34375 12.972656 -27.382812 13.046875 -27.46875 C 13.117188 -27.550781 13.628906 -28.117188 14.578125 -29.171875 C 17.328125 -32.234375 20.113281 -33.765625 22.9375 -33.765625 C 26.625 -33.765625 29.332031 -32.9375 31.0625 -31.28125 C 33.175781 -29.1875 34.234375 -25.675781 34.234375 -20.75 L 34.234375 -5.546875 C 34.234375 -3.160156 35.546875 -1.773438 38.171875 -1.390625 C 39.316406 -1.242188 39.890625 -0.988281 39.890625 -0.625 C 39.890625 -0.257812 39.769531 -0.0507812 39.53125 0 L 23.265625 0 C 23.015625 -0.0507812 22.890625 -0.222656 22.890625 -0.515625 C 22.890625 -0.953125 23.460938 -1.242188 24.609375 -1.390625 C 27.234375 -1.773438 28.546875 -3.160156 28.546875 -5.546875 L 28.546875 -20.375 C 28.546875 -23.945312 28.289062 -26.269531 27.78125 -27.34375 C 26.8125 -29.476562 24.78125 -30.546875 21.6875 -30.546875 C 19.789062 -30.546875 17.773438 -29.738281 15.640625 -28.125 C 13.503906 -26.507812 12.4375 -24.726562 12.4375 -22.78125 L 12.4375 -5.546875 C 12.4375 -3.160156 13.75 -1.773438 16.375 -1.390625 C 17.507812 -1.242188 18.078125 -0.988281 18.078125 -0.625 C 18.078125 -0.257812 17.957031 -0.0507812 17.71875 0 L 1.453125 0 C 1.210938 -0.0507812 1.09375 -0.222656 1.09375 -0.515625 C 1.09375 -0.953125 1.664062 -1.242188 2.8125 -1.390625 C 5.4375 -1.773438 6.75 -3.160156 6.75 -5.546875 L 6.75 -51.015625 C 6.75 -52.035156 6.1875 -52.738281 5.0625 -53.125 C 4.582031 -53.289062 4.0625 -53.425781 3.5 -53.53125 C 2.9375 -53.644531 2.488281 -53.75 2.15625 -53.84375 C 1.832031 -53.945312 1.628906 -54.039062 1.546875 -54.125 C 1.460938 -54.207031 1.421875 -54.390625 1.421875 -54.671875 C 1.421875 -54.953125 1.601562 -55.191406 1.96875 -55.390625 L 11.265625 -59.765625 C 11.554688 -59.910156 11.738281 -59.984375 11.8125 -59.984375 C 12.226562 -59.984375 12.4375 -59.691406 12.4375 -59.109375 Z M 12.4375 -28.21875 "/></g></g></g><g fill="#000000" fill-opacity="1"><g transform="translate(377.343201, 92.877789)"><g><path d="M 27.484375 -3.203125 C 27.367188 -3.617188 27.210938 -3.757812 27.015625 -3.625 C 26.816406 -3.488281 26.023438 -3.070312 24.640625 -2.375 C 20.097656 -0.113281 16.304688 1.015625 13.265625 1.015625 C 10.234375 1.015625 8.046875 0.046875 6.703125 -1.890625 C 6.222656 -2.617188 5.984375 -3.519531 5.984375 -4.59375 L 5.984375 -26.828125 C 5.910156 -27.535156 5.59375 -28.144531 5.03125 -28.65625 C 4.28125 -29.289062 3.492188 -29.628906 2.671875 -29.671875 C 1.859375 -29.722656 1.453125 -29.972656 1.453125 -30.421875 C 1.453125 -30.867188 1.648438 -31.144531 2.046875 -31.25 L 10.390625 -33.65625 C 10.679688 -33.75 10.96875 -33.796875 11.25 -33.796875 C 11.53125 -33.796875 11.671875 -33.585938 11.671875 -33.171875 L 11.671875 -8.71875 C 11.671875 -7.007812 12.421875 -5.691406 13.921875 -4.765625 C 15.429688 -3.847656 17.359375 -3.390625 19.703125 -3.390625 C 22.046875 -3.390625 24.15625 -4.109375 26.03125 -5.546875 C 26.613281 -6.003906 27.097656 -6.515625 27.484375 -7.078125 L 27.484375 -26.828125 C 27.410156 -27.535156 27.097656 -28.144531 26.546875 -28.65625 C 25.785156 -29.289062 25 -29.628906 24.1875 -29.671875 C 23.375 -29.722656 22.96875 -29.972656 22.96875 -30.421875 C 22.96875 -30.867188 23.160156 -31.144531 23.546875 -31.25 L 31.90625 -33.65625 C 32.195312 -33.75 32.476562 -33.796875 32.75 -33.796875 C 33.03125 -33.796875 33.171875 -33.550781 33.171875 -33.0625 L 33.171875 -7.1875 C 33.296875 -6.113281 33.597656 -5.34375 34.078125 -4.875 C 34.566406 -4.414062 35.359375 -4.1875 36.453125 -4.1875 L 38.578125 -4.34375 C 38.722656 -4.34375 38.796875 -4.203125 38.796875 -3.921875 C 38.796875 -3.640625 38.613281 -3.414062 38.25 -3.25 L 28.546875 0.765625 C 28.253906 0.910156 28.003906 0.984375 27.796875 0.984375 C 27.585938 0.984375 27.484375 0.679688 27.484375 0.078125 Z M 27.484375 -3.203125 "/></g></g></g><g fill="#000000" fill-opacity="1"><g transform="translate(435.791728, 92.877789)"><g><path d="M 11.453125 -30.515625 C 11.453125 -29.765625 11.625 -29.390625 11.96875 -29.390625 C 12.320312 -29.390625 13.875 -30.175781 16.625 -31.75 C 19.832031 -33.113281 22.273438 -33.796875 23.953125 -33.796875 C 25.628906 -33.796875 27.234375 -33.304688 28.765625 -32.328125 C 30.296875 -31.359375 31.597656 -30.085938 32.671875 -28.515625 C 34.929688 -25.253906 36.0625 -21.300781 36.0625 -16.65625 C 36.0625 -12.019531 34.445312 -7.921875 31.21875 -4.359375 C 28 -0.796875 23.753906 0.984375 18.484375 0.984375 C 15.054688 0.984375 11.894531 0.570312 9 -0.25 C 8.15625 -0.5 7.429688 -0.695312 6.828125 -0.84375 C 6.234375 -0.988281 5.90625 -1.140625 5.84375 -1.296875 C 5.789062 -1.453125 5.765625 -1.640625 5.765625 -1.859375 L 5.765625 -51.015625 C 5.765625 -52.035156 5.203125 -52.738281 4.078125 -53.125 C 3.597656 -53.289062 3.078125 -53.425781 2.515625 -53.53125 C 1.953125 -53.644531 1.503906 -53.75 1.171875 -53.84375 C 0.847656 -53.945312 0.644531 -54.039062 0.5625 -54.125 C 0.476562 -54.207031 0.4375 -54.390625 0.4375 -54.671875 C 0.4375 -54.953125 0.617188 -55.191406 0.984375 -55.390625 L 10.28125 -59.765625 C 10.570312 -59.910156 10.753906 -59.984375 10.828125 -59.984375 C 11.242188 -59.984375 11.453125 -59.691406 11.453125 -59.109375 Z M 19.171875 -29.34375 C 17.015625 -29.34375 14.585938 -28.566406 11.890625 -27.015625 C 11.597656 -26.847656 11.453125 -26.554688 11.453125 -26.140625 L 11.453125 -8.890625 C 11.691406 -6.679688 12.648438 -4.957031 14.328125 -3.71875 C 16.003906 -2.476562 17.835938 -1.859375 19.828125 -1.859375 C 23.328125 -1.859375 26.03125 -3.242188 27.9375 -6.015625 C 29.851562 -8.785156 30.8125 -11.941406 30.8125 -15.484375 C 30.8125 -19.035156 29.835938 -22.234375 27.890625 -25.078125 C 25.941406 -27.921875 23.035156 -29.34375 19.171875 -29.34375 Z M 19.171875 -29.34375 "/></g></g></g><g fill="#000000" fill-opacity="1"><g transform="translate(493.328873, 92.877789)"><g><path d="M 12.4375 -28.21875 C 12.4375 -27.632812 12.519531 -27.34375 12.6875 -27.34375 C 12.851562 -27.34375 12.972656 -27.382812 13.046875 -27.46875 C 13.117188 -27.550781 13.628906 -28.117188 14.578125 -29.171875 C 17.328125 -32.234375 20.113281 -33.765625 22.9375 -33.765625 C 26.625 -33.765625 29.332031 -32.9375 31.0625 -31.28125 C 33.175781 -29.1875 34.234375 -25.675781 34.234375 -20.75 L 34.234375 -5.546875 C 34.234375 -3.160156 35.546875 -1.773438 38.171875 -1.390625 C 39.316406 -1.242188 39.890625 -0.988281 39.890625 -0.625 C 39.890625 -0.257812 39.769531 -0.0507812 39.53125 0 L 23.265625 0 C 23.015625 -0.0507812 22.890625 -0.222656 22.890625 -0.515625 C 22.890625 -0.953125 23.460938 -1.242188 24.609375 -1.390625 C 27.234375 -1.773438 28.546875 -3.160156 28.546875 -5.546875 L 28.546875 -20.375 C 28.546875 -23.945312 28.289062 -26.269531 27.78125 -27.34375 C 26.8125 -29.476562 24.78125 -30.546875 21.6875 -30.546875 C 19.789062 -30.546875 17.773438 -29.738281 15.640625 -28.125 C 13.503906 -26.507812 12.4375 -24.726562 12.4375 -22.78125 L 12.4375 -5.546875 C 12.4375 -3.160156 13.75 -1.773438 16.375 -1.390625 C 17.507812 -1.242188 18.078125 -0.988281 18.078125 -0.625 C 18.078125 -0.257812 17.957031 -0.0507812 17.71875 0 L 1.453125 0 C 1.210938 -0.0507812 1.09375 -0.222656 1.09375 -0.515625 C 1.09375 -0.953125 1.664062 -1.242188 2.8125 -1.390625 C 5.4375 -1.773438 6.75 -3.160156 6.75 -5.546875 L 6.75 -51.015625 C 6.75 -52.035156 6.1875 -52.738281 5.0625 -53.125 C 4.582031 -53.289062 4.0625 -53.425781 3.5 -53.53125 C 2.9375 -53.644531 2.488281 -53.75 2.15625 -53.84375 C 1.832031 -53.945312 1.628906 -54.039062 1.546875 -54.125 C 1.460938 -54.207031 1.421875 -54.390625 1.421875 -54.671875 C 1.421875 -54.953125 1.601562 -55.191406 1.96875 -55.390625 L 11.265625 -59.765625 C 11.554688 -59.910156 11.738281 -59.984375 11.8125 -59.984375 C 12.226562 -59.984375 12.4375 -59.691406 12.4375 -59.109375 Z M 12.4375 -28.21875 "/></g></g></g><g fill="#000000" fill-opacity="1"><g transform="translate(551.7774, 92.877789)"><g/></g></g><g fill="#000000" fill-opacity="1"><g transform="translate(589.300634, 92.877789)"><g><path d="M 2.484375 0 C 2.285156 0 2.1875 -0.0976562 2.1875 -0.296875 L 2.1875 -1.171875 C 2.1875 -1.359375 2.304688 -1.453125 2.546875 -1.453125 L 3.390625 -1.453125 C 4.722656 -1.453125 5.632812 -1.578125 6.125 -1.828125 C 7.925781 -2.703125 8.828125 -5.109375 8.828125 -9.046875 L 8.828125 -46.921875 C 8.828125 -48.554688 7.242188 -49.53125 4.078125 -49.84375 C 3.378906 -49.914062 2.890625 -49.953125 2.609375 -49.953125 C 2.328125 -49.953125 2.1875 -50.050781 2.1875 -50.25 L 2.1875 -51.125 C 2.1875 -51.3125 2.285156 -51.40625 2.484375 -51.40625 L 15.828125 -51.40625 L 50.421875 -13.15625 C 50.546875 -13.039062 50.628906 -12.953125 50.671875 -12.890625 C 50.722656 -12.828125 50.800781 -12.796875 50.90625 -12.796875 C 51.019531 -12.796875 51.078125 -12.90625 51.078125 -13.125 L 51.078125 -38.25 C 51.078125 -43.082031 50.675781 -46.238281 49.875 -47.71875 C 49.070312 -49.207031 47.457031 -49.953125 45.03125 -49.953125 L 43.171875 -49.953125 C 42.972656 -49.953125 42.875 -50.050781 42.875 -50.25 L 42.875 -51.125 C 42.875 -51.3125 42.972656 -51.40625 43.171875 -51.40625 L 62.125 -51.40625 C 62.320312 -51.40625 62.421875 -51.3125 62.421875 -51.125 L 62.421875 -50.25 C 62.421875 -50.050781 62.0625 -49.953125 61.34375 -49.953125 C 60.625 -49.953125 59.441406 -49.535156 57.796875 -48.703125 C 56.160156 -47.878906 55.34375 -46.863281 55.34375 -45.65625 L 55.34375 -1.0625 C 55.34375 -0.519531 55.269531 -0.132812 55.125 0.09375 C 54.976562 0.320312 54.628906 0.4375 54.078125 0.4375 C 53.535156 0.4375 53.128906 0.328125 52.859375 0.109375 C 52.597656 -0.109375 52.285156 -0.425781 51.921875 -0.84375 L 14.328125 -42.515625 C 14.085938 -42.753906 13.867188 -42.875 13.671875 -42.875 C 13.546875 -42.875 13.484375 -42.753906 13.484375 -42.515625 L 13.484375 -6.125 C 13.484375 -3.914062 15.234375 -2.457031 18.734375 -1.75 C 19.710938 -1.550781 20.457031 -1.453125 20.96875 -1.453125 C 21.476562 -1.453125 21.734375 -1.359375 21.734375 -1.171875 L 21.734375 -0.296875 C 21.734375 -0.0976562 21.632812 0 21.4375 0 Z M 2.484375 0 "/></g></g></g><g fill="#000000" fill-opacity="1"><g transform="translate(670.460735, 92.877789)"><g><path d="M 2.546875 0 C 2.304688 -0.0507812 2.1875 -0.222656 2.1875 -0.515625 C 2.1875 -0.953125 2.757812 -1.242188 3.90625 -1.390625 C 6.53125 -1.773438 7.84375 -3.160156 7.84375 -5.546875 L 7.84375 -24.828125 C 7.84375 -25.847656 7.28125 -26.550781 6.15625 -26.9375 C 5.675781 -27.113281 5.15625 -27.253906 4.59375 -27.359375 C 4.03125 -27.472656 3.582031 -27.578125 3.25 -27.671875 C 2.925781 -27.765625 2.722656 -27.851562 2.640625 -27.9375 C 2.554688 -28.03125 2.515625 -28.210938 2.515625 -28.484375 C 2.515625 -28.765625 2.695312 -29.003906 3.0625 -29.203125 L 12.359375 -33.578125 C 12.648438 -33.722656 12.832031 -33.796875 12.90625 -33.796875 C 13.320312 -33.796875 13.53125 -33.503906 13.53125 -32.921875 L 13.53125 -5.546875 C 13.53125 -3.160156 14.84375 -1.773438 17.46875 -1.390625 C 18.601562 -1.242188 19.171875 -0.988281 19.171875 -0.625 C 19.171875 -0.257812 19.050781 -0.0507812 18.8125 0 Z M 10.15625 -44.046875 C 9.144531 -44.046875 8.253906 -44.359375 7.484375 -44.984375 C 6.722656 -45.617188 6.34375 -46.5 6.34375 -47.625 C 6.34375 -48.757812 6.707031 -49.65625 7.4375 -50.3125 C 8.164062 -50.96875 9.035156 -51.296875 10.046875 -51.296875 C 11.054688 -51.296875 11.90625 -50.90625 12.59375 -50.125 C 13.289062 -49.351562 13.640625 -48.515625 13.640625 -47.609375 C 13.640625 -46.710938 13.3125 -45.894531 12.65625 -45.15625 C 12 -44.414062 11.164062 -44.046875 10.15625 -44.046875 Z M 10.15625 -44.046875 "/></g></g></g><g fill="#000000" fill-opacity="1"><g transform="translate(708.931782, 92.877789)"><g><path d="M 58.375 -32.8125 C 58.644531 -32.738281 58.78125 -32.566406 58.78125 -32.296875 C 58.78125 -32.035156 58.742188 -31.84375 58.671875 -31.71875 C 58.597656 -31.59375 58.0625 -31.457031 57.0625 -31.3125 C 56.0625 -31.164062 55.347656 -30.878906 54.921875 -30.453125 C 54.503906 -30.035156 54.128906 -29.554688 53.796875 -29.015625 C 53.472656 -28.484375 53.1875 -27.929688 52.9375 -27.359375 C 52.695312 -26.785156 52.46875 -26.269531 52.25 -25.8125 L 42.296875 -0.078125 C 42.003906 0.628906 41.738281 0.984375 41.5 0.984375 L 38.609375 0.984375 C 38.367188 0.984375 38.101562 0.609375 37.8125 -0.140625 L 29.71875 -22.0625 L 21.21875 -0.078125 C 20.925781 0.628906 20.660156 0.984375 20.421875 0.984375 L 17.53125 0.984375 C 17.289062 0.984375 17.023438 0.609375 16.734375 -0.140625 L 7.078125 -26.28125 C 6.171875 -28.738281 4.625 -30.320312 2.4375 -31.03125 C 2.269531 -31.070312 2.066406 -31.109375 1.828125 -31.140625 C 0.804688 -31.234375 0.296875 -31.535156 0.296875 -32.046875 C 0.296875 -32.554688 0.585938 -32.8125 1.171875 -32.8125 L 17.390625 -32.8125 C 17.585938 -32.8125 17.6875 -32.625 17.6875 -32.25 C 17.6875 -31.875 17.550781 -31.625 17.28125 -31.5 C 16.84375 -31.332031 16.085938 -31.257812 15.015625 -31.28125 C 13.242188 -31.332031 12.359375 -30.601562 12.359375 -29.09375 L 12.4375 -28.21875 L 19.828125 -7.984375 C 20.316406 -6.742188 20.804688 -6.78125 21.296875 -8.09375 C 21.335938 -8.21875 22.347656 -10.769531 24.328125 -15.75 C 26.316406 -20.726562 27.585938 -24.238281 28.140625 -26.28125 C 27.242188 -28.738281 25.703125 -30.320312 23.515625 -31.03125 C 23.347656 -31.070312 23.140625 -31.109375 22.890625 -31.140625 C 21.867188 -31.234375 21.359375 -31.535156 21.359375 -32.046875 C 21.359375 -32.554688 21.648438 -32.8125 22.234375 -32.8125 L 38.46875 -32.8125 C 38.664062 -32.8125 38.765625 -32.625 38.765625 -32.25 C 38.765625 -31.875 38.628906 -31.625 38.359375 -31.5 C 37.921875 -31.332031 37.164062 -31.257812 36.09375 -31.28125 C 34.320312 -31.332031 33.4375 -30.601562 33.4375 -29.09375 L 33.5 -28.21875 L 40.90625 -7.984375 C 41.394531 -6.742188 41.882812 -6.78125 42.375 -8.09375 C 42.414062 -8.21875 42.726562 -9.007812 43.3125 -10.46875 C 46.300781 -17.945312 48.066406 -22.566406 48.609375 -24.328125 C 49.160156 -26.097656 49.4375 -27.3125 49.4375 -27.96875 C 49.4375 -28.625 49.082031 -29.304688 48.375 -30.015625 C 47.675781 -30.734375 46.726562 -31.09375 45.53125 -31.09375 C 44.34375 -31.09375 43.75 -31.457031 43.75 -32.1875 C 43.75 -32.601562 44.019531 -32.8125 44.5625 -32.8125 Z M 58.375 -32.8125 "/></g></g></g><g fill="#000000" fill-opacity="1"><g transform="translate(786.264131, 92.877789)"><g><path d="M 25.078125 -6.015625 C 25.078125 -5.378906 25.375 -4.875 25.96875 -4.5 C 26.570312 -4.125 27.257812 -3.9375 28.03125 -3.9375 C 28.8125 -3.9375 29.460938 -4.132812 29.984375 -4.53125 C 30.503906 -4.9375 30.863281 -5.140625 31.0625 -5.140625 C 31.257812 -5.140625 31.359375 -4.878906 31.359375 -4.359375 C 31.359375 -3.835938 31.113281 -3.394531 30.625 -3.03125 C 26.976562 -0.351562 24.507812 0.984375 23.21875 0.984375 C 21.664062 0.984375 20.40625 -0.628906 19.4375 -3.859375 C 19.363281 -4.109375 19.300781 -4.21875 19.25 -4.1875 C 16.238281 -1.925781 14.34375 -0.566406 13.5625 -0.109375 C 11.570312 1.035156 9.570312 1.21875 7.5625 0.4375 C 5.5625 -0.34375 4.109375 -1.628906 3.203125 -3.421875 C 2.765625 -4.347656 2.546875 -5.332031 2.546875 -6.375 C 2.546875 -8.445312 3.3125 -10.085938 4.84375 -11.296875 C 6.375 -12.515625 9.289062 -13.679688 13.59375 -14.796875 C 15.050781 -15.191406 16.351562 -15.691406 17.5 -16.296875 C 18.644531 -16.898438 19.242188 -17.285156 19.296875 -17.453125 C 19.359375 -17.628906 19.390625 -17.789062 19.390625 -17.9375 L 19.390625 -24.9375 C 19.390625 -27.6875 18.320312 -29.617188 16.1875 -30.734375 C 15.476562 -31.097656 14.628906 -31.28125 13.640625 -31.28125 C 12.660156 -31.28125 11.664062 -30.890625 10.65625 -30.109375 C 9.65625 -29.335938 9.15625 -28.234375 9.15625 -26.796875 L 9.328125 -25.375 C 9.179688 -25.082031 8.304688 -24.59375 6.703125 -23.90625 C 5.097656 -23.226562 4.175781 -22.867188 3.9375 -22.828125 C 3.550781 -22.828125 3.359375 -23.289062 3.359375 -24.21875 C 3.359375 -25.15625 3.632812 -26.195312 4.1875 -27.34375 C 4.75 -28.488281 5.539062 -29.535156 6.5625 -30.484375 C 8.945312 -32.691406 11.671875 -33.796875 14.734375 -33.796875 C 17.796875 -33.796875 20.285156 -32.953125 22.203125 -31.265625 C 24.117188 -29.578125 25.078125 -27.566406 25.078125 -25.234375 Z M 8.28125 -7.078125 C 8.28125 -5.910156 8.726562 -4.894531 9.625 -4.03125 C 10.519531 -3.164062 11.546875 -2.734375 12.703125 -2.734375 C 13.859375 -2.734375 15.257812 -3.222656 16.90625 -4.203125 C 18.5625 -5.191406 19.390625 -6.207031 19.390625 -7.25 L 19.390625 -14.65625 C 19.390625 -14.925781 19.328125 -15.0625 19.203125 -15.0625 C 19.085938 -15.0625 19.003906 -15.046875 18.953125 -15.015625 L 10.5 -11.078125 C 9.625 -10.453125 9.035156 -9.921875 8.734375 -9.484375 C 8.429688 -9.046875 8.28125 -8.242188 8.28125 -7.078125 Z M 8.28125 -7.078125 "/></g></g></g><g fill="#000000" fill-opacity="1"><g transform="translate(835.999862, 92.877789)"><g><path d="M 20.234375 -24.9375 C 20.234375 -24.40625 20.03125 -24.140625 19.625 -24.140625 C 19.226562 -24.140625 18.921875 -24.429688 18.703125 -25.015625 C 18.117188 -26.617188 17.25 -28.039062 16.09375 -29.28125 C 14.9375 -30.519531 13.507812 -31.140625 11.8125 -31.140625 C 9.570312 -31.140625 8.066406 -30.019531 7.296875 -27.78125 C 7.046875 -27.03125 6.921875 -26.253906 6.921875 -25.453125 C 6.921875 -24.648438 7.429688 -23.753906 8.453125 -22.765625 C 9.472656 -21.785156 11.148438 -20.613281 13.484375 -19.25 C 15.816406 -17.882812 17.519531 -16.726562 18.59375 -15.78125 C 21.019531 -13.625 22.234375 -11.125 22.234375 -8.28125 C 22.234375 -5.4375 21.1875 -3.179688 19.09375 -1.515625 C 17.007812 0.148438 14.582031 0.984375 11.8125 0.984375 C 10.332031 0.984375 8.988281 0.78125 7.78125 0.375 C 6.582031 -0.0195312 5.890625 -0.21875 5.703125 -0.21875 C 5.523438 -0.21875 5.234375 -0.0195312 4.828125 0.375 C 4.429688 0.78125 4.109375 0.984375 3.859375 0.984375 L 3.25 0.984375 C 3.101562 0.984375 2.921875 -0.328125 2.703125 -2.953125 C 2.484375 -5.578125 2.375 -7.128906 2.375 -7.609375 C 2.375 -8.097656 2.414062 -8.367188 2.5 -8.421875 C 2.582031 -8.472656 2.71875 -8.5 2.90625 -8.5 C 3.101562 -8.5 3.269531 -8.4375 3.40625 -8.3125 C 3.539062 -8.1875 3.65625 -8.03125 3.75 -7.84375 C 3.851562 -7.664062 3.929688 -7.476562 3.984375 -7.28125 C 4.046875 -7.09375 4.203125 -6.734375 4.453125 -6.203125 C 6.097656 -2.671875 8.648438 -0.90625 12.109375 -0.90625 C 13.640625 -0.90625 14.863281 -1.46875 15.78125 -2.59375 C 16.707031 -3.726562 17.171875 -4.988281 17.171875 -6.375 C 17.171875 -7.757812 16.804688 -8.925781 16.078125 -9.875 C 15.347656 -10.820312 14.441406 -11.6875 13.359375 -12.46875 C 12.273438 -13.25 11.101562 -14.003906 9.84375 -14.734375 C 4.9375 -17.597656 2.484375 -20.769531 2.484375 -24.25 C 2.484375 -26.84375 3.597656 -29.082031 5.828125 -30.96875 C 8.066406 -32.851562 10.363281 -33.796875 12.71875 -33.796875 C 15.082031 -33.796875 16.828125 -33.539062 17.953125 -33.03125 C 19.085938 -32.519531 19.75 -32.085938 19.9375 -31.734375 C 20.132812 -31.378906 20.234375 -30.234375 20.234375 -28.296875 Z M 20.234375 -24.9375 "/></g></g></g><g fill="#000000" fill-opacity="1"><g transform="translate(131.150205, 151.77086)"><g><path d="M 14.34375 0.472656 C 20.746094 0.472656 25.132812 -3.792969 25.84375 -9.957031 L 23.117188 -9.957031 C 22.5625 -5.613281 19.480469 -1.816406 14.265625 -1.816406 C 7.667969 -1.816406 4.03125 -6.914062 4.03125 -14.109375 C 4.03125 -21.179688 7.585938 -26.476562 14.34375 -26.476562 C 19.085938 -26.476562 22.167969 -23.394531 22.800781 -19.363281 L 25.527344 -19.363281 C 24.699219 -24.855469 20.628906 -28.730469 14.421875 -28.730469 C 6.242188 -28.730469 1.304688 -22.644531 1.304688 -14.109375 C 1.304688 -5.453125 6.285156 0.472656 14.34375 0.472656 Z M 14.34375 0.472656 "/></g></g></g><g fill="#000000" fill-opacity="1"><g transform="translate(170.036109, 151.77086)"><g><path d="M 1.976562 0 L 4.425781 0 L 4.425781 -11.816406 C 4.425781 -16.242188 8.0625 -18.890625 11.777344 -18.296875 L 11.855469 -18.296875 L 11.855469 -20.46875 C 11.382812 -20.550781 10.945312 -20.589844 10.351562 -20.589844 C 7.667969 -20.589844 5.414062 -18.769531 4.503906 -16.203125 L 4.425781 -16.203125 L 4.425781 -20.3125 L 1.976562 -20.3125 Z M 1.976562 0 "/></g></g></g><g fill="#000000" fill-opacity="1"><g transform="translate(194.498784, 151.77086)"><g><path d="M 7.429688 0.472656 C 10.472656 0.472656 13.039062 -0.632812 14.582031 -3.042969 L 14.660156 -3.042969 C 14.660156 -0.75 15.492188 0.316406 17.742188 0.316406 C 18.296875 0.316406 18.929688 0.238281 19.640625 0.0390625 L 19.640625 -1.105469 C 17.03125 -0.632812 17.070312 -2.371094 17.070312 -3.792969 L 17.070312 -13.832031 C 17.070312 -18.96875 14.066406 -20.667969 9.878906 -20.667969 C 3.953125 -20.667969 1.976562 -17.425781 1.777344 -14.382812 L 4.148438 -14.382812 C 4.347656 -17.152344 6.242188 -18.808594 9.878906 -18.808594 C 12.644531 -18.808594 14.621094 -17.546875 14.621094 -14.9375 C 14.621094 -11.933594 11.421875 -11.894531 8.496094 -11.382812 C 3.398438 -10.550781 0.871094 -8.851562 0.871094 -5.019531 C 0.871094 -1.699219 3.4375 0.472656 7.429688 0.472656 Z M 8.21875 -1.382812 C 5.097656 -1.382812 3.320312 -2.726562 3.320312 -5.492188 C 3.320312 -8.257812 5.730469 -9.367188 9.246094 -9.839844 C 11.855469 -10.195312 13.949219 -10.550781 14.621094 -11.617188 L 14.621094 -6.519531 C 14.621094 -4.308594 12.605469 -1.382812 8.21875 -1.382812 Z M 8.21875 -1.382812 "/></g></g></g><g fill="#000000" fill-opacity="1"><g transform="translate(226.469441, 151.77086)"><g><path d="M 3.554688 0 L 6.046875 0 L 6.046875 -18.335938 L 10.195312 -18.335938 L 10.195312 -20.3125 L 6.046875 -20.3125 L 6.046875 -22.523438 C 6.046875 -26.4375 7.429688 -26.632812 10.195312 -26.320312 L 10.195312 -28.292969 C 9.445312 -28.453125 8.652344 -28.53125 8.0625 -28.53125 C 5.058594 -28.53125 3.554688 -26.988281 3.554688 -22.878906 L 3.554688 -20.3125 L 0.632812 -20.3125 L 0.632812 -18.335938 L 3.554688 -18.335938 Z M 3.554688 0 "/></g></g></g><g fill="#000000" fill-opacity="1"><g transform="translate(249.430524, 151.77086)"><g><path d="M 7.707031 0.199219 C 8.773438 0.199219 9.445312 0.078125 10.273438 -0.117188 L 10.273438 -2.054688 C 6.285156 -1.34375 6.046875 -3.121094 6.046875 -5.730469 L 6.046875 -18.335938 L 10.273438 -18.335938 L 10.273438 -20.3125 L 6.046875 -20.3125 L 6.046875 -26.632812 L 3.554688 -26.632812 L 3.554688 -20.3125 L 0.632812 -20.3125 L 0.632812 -18.335938 L 3.554688 -18.335938 L 3.554688 -5.375 C 3.554688 -1.144531 5.097656 0.199219 7.707031 0.199219 Z M 7.707031 0.199219 "/></g></g></g><g fill="#000000" fill-opacity="1"><g transform="translate(272.747251, 151.77086)"><g><path d="M 3.515625 -24.539062 C 4.308594 -24.539062 5.058594 -25.054688 5.058594 -25.960938 C 5.058594 -26.871094 4.308594 -27.386719 3.515625 -27.386719 C 2.765625 -27.386719 1.976562 -26.871094 1.976562 -25.960938 C 1.976562 -25.054688 2.765625 -24.539062 3.515625 -24.539062 Z M 2.292969 0 L 4.742188 0 L 4.742188 -20.3125 L 2.292969 -20.3125 Z M 2.292969 0 "/></g></g></g><g fill="#000000" fill-opacity="1"><g transform="translate(291.756772, 151.77086)"><g><path d="M 1.976562 0 L 4.425781 0 L 4.425781 -13.4375 C 4.425781 -15.765625 6.757812 -18.613281 10.75 -18.613281 C 14.621094 -18.613281 15.609375 -16.242188 15.609375 -13.238281 L 15.609375 0 L 18.097656 0 L 18.097656 -14.34375 C 18.097656 -18.492188 15.253906 -20.667969 11.894531 -20.667969 C 7.785156 -20.667969 5.730469 -18.730469 4.503906 -16.792969 L 4.425781 -16.792969 L 4.425781 -20.3125 L 1.976562 -20.3125 Z M 1.976562 0 "/></g></g></g><g fill="#000000" fill-opacity="1"><g transform="translate(323.648406, 151.77086)"><g><path d="M 10.234375 6.835938 C 15.6875 6.835938 19.125 4.386719 19.125 -1.34375 L 19.125 -20.3125 L 16.675781 -20.3125 L 16.675781 -16.203125 L 16.597656 -16.203125 C 15.492188 -18.808594 12.882812 -20.667969 9.484375 -20.667969 C 4.859375 -20.667969 0.949219 -17.308594 0.949219 -10.867188 C 0.949219 -4.425781 4.859375 -1.105469 9.484375 -1.105469 C 12.882812 -1.105469 15.53125 -3.003906 16.597656 -5.453125 L 16.675781 -5.453125 L 16.675781 -1.460938 C 16.675781 2.925781 14.226562 4.898438 10.195312 4.898438 C 6.203125 4.898438 4.347656 2.964844 3.914062 0.871094 L 1.460938 0.871094 C 1.855469 3.992188 4.78125 6.835938 10.234375 6.835938 Z M 10.117188 -3.042969 C 6.363281 -3.042969 3.398438 -5.613281 3.398438 -10.867188 C 3.398438 -16.164062 6.363281 -18.691406 10.117188 -18.691406 C 13.394531 -18.691406 16.636719 -16.164062 16.636719 -10.867188 C 16.636719 -5.613281 13.394531 -3.042969 10.117188 -3.042969 Z M 10.117188 -3.042969 "/></g></g></g><g fill="#000000" fill-opacity="1"><g transform="translate(356.725497, 151.77086)"><g/></g></g><g fill="#000000" fill-opacity="1"><g transform="translate(377.197096, 151.77086)"><g><path d="M 4.664062 6.757812 C 7.746094 6.757812 8.929688 4.78125 10.433594 0.59375 L 18.136719 -20.3125 L 15.609375 -20.3125 L 9.367188 -3.003906 L 9.324219 -3.003906 L 2.648438 -20.3125 L 0.117188 -20.3125 L 7.785156 -0.789062 C 7.546875 1.144531 6.796875 3.082031 6.007812 3.953125 C 5.136719 4.941406 3.554688 4.703125 2.09375 4.425781 L 2.015625 4.425781 L 2.015625 6.363281 C 2.6875 6.558594 3.597656 6.757812 4.664062 6.757812 Z M 4.664062 6.757812 "/></g></g></g><g fill="#000000" fill-opacity="1"><g transform="translate(407.42906, 151.77086)"><g><path d="M 10.589844 0.472656 C 16.597656 0.472656 20.273438 -3.792969 20.273438 -10.078125 C 20.273438 -16.359375 16.597656 -20.667969 10.589844 -20.667969 C 4.585938 -20.667969 0.949219 -16.359375 0.949219 -10.078125 C 0.949219 -3.792969 4.585938 0.472656 10.589844 0.472656 Z M 10.589844 -1.460938 C 6.007812 -1.460938 3.398438 -4.980469 3.398438 -10.078125 C 3.398438 -15.175781 6.007812 -18.691406 10.589844 -18.691406 C 15.175781 -18.691406 17.78125 -15.175781 17.78125 -10.078125 C 17.78125 -4.980469 15.175781 -1.460938 10.589844 -1.460938 Z M 10.589844 -1.460938 "/></g></g></g><g fill="#000000" fill-opacity="1"><g transform="translate(440.585179, 151.77086)"><g><path d="M 8.023438 0.355469 C 12.132812 0.355469 14.1875 -1.582031 15.410156 -3.476562 L 15.492188 -3.476562 L 15.492188 0 L 17.980469 0 L 17.980469 -20.3125 L 15.492188 -20.3125 L 15.492188 -6.875 C 15.492188 -4.542969 13.160156 -1.699219 9.167969 -1.699219 C 5.296875 -1.699219 4.308594 -4.070312 4.308594 -7.074219 L 4.308594 -20.3125 L 1.816406 -20.3125 L 1.816406 -5.96875 C 1.816406 -1.816406 4.703125 0.355469 8.023438 0.355469 Z M 8.023438 0.355469 "/></g></g></g><g fill="#000000" fill-opacity="1"><g transform="translate(472.476801, 151.77086)"><g><path d="M 1.976562 0 L 4.425781 0 L 4.425781 -11.816406 C 4.425781 -16.242188 8.0625 -18.890625 11.777344 -18.296875 L 11.855469 -18.296875 L 11.855469 -20.46875 C 11.382812 -20.550781 10.945312 -20.589844 10.351562 -20.589844 C 7.667969 -20.589844 5.414062 -18.769531 4.503906 -16.203125 L 4.425781 -16.203125 L 4.425781 -20.3125 L 1.976562 -20.3125 Z M 1.976562 0 "/></g></g></g><g fill="#000000" fill-opacity="1"><g transform="translate(496.939482, 151.77086)"><g/></g></g><g fill="#000000" fill-opacity="1"><g transform="translate(517.411058, 151.77086)"><g><path d="M 9.640625 0.472656 C 13.355469 0.472656 15.765625 -1.855469 16.835938 -4.308594 L 16.914062 -4.308594 L 16.914062 0 L 19.402344 0 L 19.402344 -28.253906 L 16.914062 -28.253906 L 16.914062 -15.808594 L 16.835938 -15.808594 C 15.765625 -18.414062 13.355469 -20.667969 9.640625 -20.667969 C 4.703125 -20.667969 0.949219 -16.714844 0.949219 -10.078125 C 0.949219 -3.4375 4.703125 0.472656 9.640625 0.472656 Z M 10.273438 -1.460938 C 6.242188 -1.460938 3.398438 -4.664062 3.398438 -10.078125 C 3.398438 -15.53125 6.242188 -18.691406 10.273438 -18.691406 C 13.871094 -18.691406 16.875 -15.53125 16.875 -10.078125 C 16.875 -4.664062 13.871094 -1.460938 10.273438 -1.460938 Z M 10.273438 -1.460938 "/></g></g></g><g fill="#000000" fill-opacity="1"><g transform="translate(550.725234, 151.77086)"><g><path d="M 1.976562 0 L 4.425781 0 L 4.425781 -11.816406 C 4.425781 -16.242188 8.0625 -18.890625 11.777344 -18.296875 L 11.855469 -18.296875 L 11.855469 -20.46875 C 11.382812 -20.550781 10.945312 -20.589844 10.351562 -20.589844 C 7.667969 -20.589844 5.414062 -18.769531 4.503906 -16.203125 L 4.425781 -16.203125 L 4.425781 -20.3125 L 1.976562 -20.3125 Z M 1.976562 0 "/></g></g></g><g fill="#000000" fill-opacity="1"><g transform="translate(575.187891, 151.77086)"><g><path d="M 10.550781 0.472656 C 15.453125 0.472656 18.257812 -2.292969 19.164062 -6.085938 L 16.714844 -6.085938 C 16.242188 -4.226562 14.582031 -1.460938 10.511719 -1.460938 C 6.285156 -1.460938 3.398438 -4.542969 3.398438 -9.839844 L 19.441406 -9.839844 C 19.441406 -16.121094 16.558594 -20.667969 10.433594 -20.667969 C 4.703125 -20.667969 0.949219 -16.597656 0.949219 -10.078125 C 0.949219 -3.753906 4.625 0.472656 10.550781 0.472656 Z M 3.398438 -11.539062 C 3.476562 -15.492188 6.046875 -18.808594 10.433594 -18.808594 C 14.859375 -18.808594 16.992188 -15.292969 16.992188 -11.539062 Z M 3.398438 -11.539062 "/></g></g></g><g fill="#000000" fill-opacity="1"><g transform="translate(607.474654, 151.77086)"><g><path d="M 7.429688 0.472656 C 10.472656 0.472656 13.039062 -0.632812 14.582031 -3.042969 L 14.660156 -3.042969 C 14.660156 -0.75 15.492188 0.316406 17.742188 0.316406 C 18.296875 0.316406 18.929688 0.238281 19.640625 0.0390625 L 19.640625 -1.105469 C 17.03125 -0.632812 17.070312 -2.371094 17.070312 -3.792969 L 17.070312 -13.832031 C 17.070312 -18.96875 14.066406 -20.667969 9.878906 -20.667969 C 3.953125 -20.667969 1.976562 -17.425781 1.777344 -14.382812 L 4.148438 -14.382812 C 4.347656 -17.152344 6.242188 -18.808594 9.878906 -18.808594 C 12.644531 -18.808594 14.621094 -17.546875 14.621094 -14.9375 C 14.621094 -11.933594 11.421875 -11.894531 8.496094 -11.382812 C 3.398438 -10.550781 0.871094 -8.851562 0.871094 -5.019531 C 0.871094 -1.699219 3.4375 0.472656 7.429688 0.472656 Z M 8.21875 -1.382812 C 5.097656 -1.382812 3.320312 -2.726562 3.320312 -5.492188 C 3.320312 -8.257812 5.730469 -9.367188 9.246094 -9.839844 C 11.855469 -10.195312 13.949219 -10.550781 14.621094 -11.617188 L 14.621094 -6.519531 C 14.621094 -4.308594 12.605469 -1.382812 8.21875 -1.382812 Z M 8.21875 -1.382812 "/></g></g></g><g fill="#000000" fill-opacity="1"><g transform="translate(639.445305, 151.77086)"><g><path d="M 1.976562 0 L 4.425781 0 L 4.425781 -13.238281 C 4.425781 -15.6875 6.640625 -18.613281 10.273438 -18.613281 C 12.882812 -18.613281 14.503906 -17.070312 14.503906 -12.882812 L 14.503906 0 L 16.992188 0 L 16.992188 -13.238281 C 16.992188 -16.003906 19.164062 -18.613281 22.839844 -18.613281 C 26.042969 -18.613281 27.070312 -16.675781 27.070312 -12.882812 L 27.070312 0 L 29.558594 0 L 29.558594 -13.988281 C 29.558594 -18.179688 27.542969 -20.667969 23.589844 -20.667969 C 19.957031 -20.667969 18.019531 -18.929688 16.558594 -16.480469 L 16.480469 -16.480469 C 15.886719 -19.125 14.027344 -20.667969 11.066406 -20.667969 C 7.546875 -20.667969 5.53125 -18.574219 4.503906 -16.753906 L 4.425781 -16.753906 L 4.425781 -20.3125 L 1.976562 -20.3125 Z M 1.976562 0 "/></g></g></g><g fill="#000000" fill-opacity="1"><g transform="translate(682.836002, 151.77086)"><g/></g></g><g fill="#000000" fill-opacity="1"><g transform="translate(703.307579, 151.77086)"><g><path d="M 2.015625 0 L 4.503906 0 L 4.503906 -13.4375 C 4.503906 -15.765625 6.875 -18.613281 10.789062 -18.613281 C 14.699219 -18.613281 15.6875 -16.242188 15.6875 -13.238281 L 15.6875 0 L 18.136719 0 L 18.136719 -14.34375 C 18.136719 -18.492188 15.292969 -20.667969 11.855469 -20.667969 C 7.863281 -20.667969 5.769531 -18.730469 4.585938 -16.792969 L 4.503906 -16.792969 L 4.503906 -28.253906 L 2.015625 -28.253906 Z M 2.015625 0 "/></g></g></g><g fill="#000000" fill-opacity="1"><g transform="translate(735.238739, 151.77086)"><g><path d="M 10.589844 0.472656 C 16.597656 0.472656 20.273438 -3.792969 20.273438 -10.078125 C 20.273438 -16.359375 16.597656 -20.667969 10.589844 -20.667969 C 4.585938 -20.667969 0.949219 -16.359375 0.949219 -10.078125 C 0.949219 -3.792969 4.585938 0.472656 10.589844 0.472656 Z M 10.589844 -1.460938 C 6.007812 -1.460938 3.398438 -4.980469 3.398438 -10.078125 C 3.398438 -15.175781 6.007812 -18.691406 10.589844 -18.691406 C 15.175781 -18.691406 17.78125 -15.175781 17.78125 -10.078125 C 17.78125 -4.980469 15.175781 -1.460938 10.589844 -1.460938 Z M 10.589844 -1.460938 "/></g></g></g><g fill="#000000" fill-opacity="1"><g transform="translate(768.394858, 151.77086)"><g><path d="M 1.976562 0 L 4.425781 0 L 4.425781 -13.238281 C 4.425781 -15.6875 6.640625 -18.613281 10.273438 -18.613281 C 12.882812 -18.613281 14.503906 -17.070312 14.503906 -12.882812 L 14.503906 0 L 16.992188 0 L 16.992188 -13.238281 C 16.992188 -16.003906 19.164062 -18.613281 22.839844 -18.613281 C 26.042969 -18.613281 27.070312 -16.675781 27.070312 -12.882812 L 27.070312 0 L 29.558594 0 L 29.558594 -13.988281 C 29.558594 -18.179688 27.542969 -20.667969 23.589844 -20.667969 C 19.957031 -20.667969 18.019531 -18.929688 16.558594 -16.480469 L 16.480469 -16.480469 C 15.886719 -19.125 14.027344 -20.667969 11.066406 -20.667969 C 7.546875 -20.667969 5.53125 -18.574219 4.503906 -16.753906 L 4.425781 -16.753906 L 4.425781 -20.3125 L 1.976562 -20.3125 Z M 1.976562 0 "/></g></g></g><g fill="#000000" fill-opacity="1"><g transform="translate(811.785555, 151.77086)"><g><path d="M 10.550781 0.472656 C 15.453125 0.472656 18.257812 -2.292969 19.164062 -6.085938 L 16.714844 -6.085938 C 16.242188 -4.226562 14.582031 -1.460938 10.511719 -1.460938 C 6.285156 -1.460938 3.398438 -4.542969 3.398438 -9.839844 L 19.441406 -9.839844 C 19.441406 -16.121094 16.558594 -20.667969 10.433594 -20.667969 C 4.703125 -20.667969 0.949219 -16.597656 0.949219 -10.078125 C 0.949219 -3.753906 4.625 0.472656 10.550781 0.472656 Z M 3.398438 -11.539062 C 3.476562 -15.492188 6.046875 -18.808594 10.433594 -18.808594 C 14.859375 -18.808594 16.992188 -15.292969 16.992188 -11.539062 Z M 3.398438 -11.539062 "/></g></g></g><g fill="#000000" fill-opacity="1"><g transform="translate(844.072318, 151.77086)"><g/></g></g><g fill="#000000" fill-opacity="1"><g transform="translate(864.543894, 151.77086)"><g><path d="M 9.722656 0.472656 C 14.382812 0.472656 17.308594 -1.855469 17.308594 -5.453125 C 17.308594 -9.523438 14.226562 -10.550781 9.957031 -11.617188 C 6.402344 -12.488281 3.792969 -12.960938 3.792969 -15.371094 C 3.792969 -17.742188 6.242188 -18.808594 8.8125 -18.808594 C 12.328125 -18.808594 13.910156 -16.792969 14.265625 -14.699219 L 16.636719 -14.699219 C 16.28125 -17.664062 14.109375 -20.667969 8.773438 -20.667969 C 4.070312 -20.667969 1.304688 -18.453125 1.304688 -15.253906 C 1.304688 -11.65625 4.425781 -10.789062 8.378906 -9.761719 C 11.933594 -8.851562 14.859375 -8.496094 14.859375 -5.175781 C 14.859375 -2.964844 12.566406 -1.382812 9.640625 -1.382812 C 5.492188 -1.382812 3.242188 -3.4375 3.042969 -6.441406 L 0.671875 -6.441406 C 0.871094 -2.527344 3.597656 0.472656 9.722656 0.472656 Z M 9.722656 0.472656 "/></g></g></g><g fill="#000000" fill-opacity="1"><g transform="translate(894.657316, 151.77086)"><g><path d="M 7.707031 0.199219 C 8.773438 0.199219 9.445312 0.078125 10.273438 -0.117188 L 10.273438 -2.054688 C 6.285156 -1.34375 6.046875 -3.121094 6.046875 -5.730469 L 6.046875 -18.335938 L 10.273438 -18.335938 L 10.273438 -20.3125 L 6.046875 -20.3125 L 6.046875 -26.632812 L 3.554688 -26.632812 L 3.554688 -20.3125 L 0.632812 -20.3125 L 0.632812 -18.335938 L 3.554688 -18.335938 L 3.554688 -5.375 C 3.554688 -1.144531 5.097656 0.199219 7.707031 0.199219 Z M 7.707031 0.199219 "/></g></g></g><g fill="#000000" fill-opacity="1"><g transform="translate(917.974042, 151.77086)"><g><path d="M 10.589844 0.472656 C 16.597656 0.472656 20.273438 -3.792969 20.273438 -10.078125 C 20.273438 -16.359375 16.597656 -20.667969 10.589844 -20.667969 C 4.585938 -20.667969 0.949219 -16.359375 0.949219 -10.078125 C 0.949219 -3.792969 4.585938 0.472656 10.589844 0.472656 Z M 10.589844 -1.460938 C 6.007812 -1.460938 3.398438 -4.980469 3.398438 -10.078125 C 3.398438 -15.175781 6.007812 -18.691406 10.589844 -18.691406 C 15.175781 -18.691406 17.78125 -15.175781 17.78125 -10.078125 C 17.78125 -4.980469 15.175781 -1.460938 10.589844 -1.460938 Z M 10.589844 -1.460938 "/></g></g></g><g fill="#000000" fill-opacity="1"><g transform="translate(951.130161, 151.77086)"><g><path d="M 1.976562 0 L 4.425781 0 L 4.425781 -11.816406 C 4.425781 -16.242188 8.0625 -18.890625 11.777344 -18.296875 L 11.855469 -18.296875 L 11.855469 -20.46875 C 11.382812 -20.550781 10.945312 -20.589844 10.351562 -20.589844 C 7.667969 -20.589844 5.414062 -18.769531 4.503906 -16.203125 L 4.425781 -16.203125 L 4.425781 -20.3125 L 1.976562 -20.3125 Z M 1.976562 0 "/></g></g></g><g fill="#000000" fill-opacity="1"><g transform="translate(975.592818, 151.77086)"><g><path d="M 4.664062 6.757812 C 7.746094 6.757812 8.929688 4.78125 10.433594 0.59375 L 18.136719 -20.3125 L 15.609375 -20.3125 L 9.367188 -3.003906 L 9.324219 -3.003906 L 2.648438 -20.3125 L 0.117188 -20.3125 L 7.785156 -0.789062 C 7.546875 1.144531 6.796875 3.082031 6.007812 3.953125 C 5.136719 4.941406 3.554688 4.703125 2.09375 4.425781 L 2.015625 4.425781 L 2.015625 6.363281 C 2.6875 6.558594 3.597656 6.757812 4.664062 6.757812 Z M 4.664062 6.757812 "/></g></g></g></svg>